# xmcd
#
# Track frame offsets: 
#        182
#        16510
#        31290
#        43042
#        51087
#        64850
#        85090
#        94675
#        105485
#        132262
#        146495
#        157842
#
# Disc length: 2265 seconds
#
# Revision: 12
# Processed by: cddbd v1.5.2PL0 Copyright (c) Steve Scherf et al.
# Submitted via: ExactAudioCopy v0.99pb5
#
DISCID=8b08d70c
DTITLE=John Mayall - Blues Breakers With Eric Clapton
DYEAR=1966
DGENRE=Blues
TTITLE0=All Your Love
TTITLE1=Hideaway
TTITLE2=Little Girl
TTITLE3=Another Man
TTITLE4=Double Crossing Time
TTITLE5=What'd I Say
TTITLE6=Key To Love
TTITLE7=Parchman Farm
TTITLE8=Have You Heard
TTITLE9=Ramblin' On My Mind
TTITLE10=Steppin Out
TTITLE11=It Ain't Right
EXTD=(p) 1966, (c) 1982\nThe Decca Record Co. Ltd, London England.\n Y
EXTD=EAR: 1966
EXTT0=
EXTT1=
EXTT2=
EXTT3=
EXTT4=
EXTT5=
EXTT6=
EXTT7=
EXTT8=
EXTT9=
EXTT10=
EXTT11=
PLAYORDER=
